<?xml version="1.0" encoding="UTF-8"?>
<svg id="Camada_2" data-name="Camada 2" xmlns="http://www.w3.org/2000/svg" viewBox="0 0 144.94 144.67">
  <defs>
    <style>
      .cls-1 {
        fill: #5c9c54;
        stroke-width: 0px;
      }
    </style>
  </defs>
  <g id="Layer_1" data-name="Layer 1">
    <g>
      <path class="cls-1" d="M77.48,143.64c0,.59.5,1.07,1.09,1.02,37.17-3.1,66.37-34.23,66.37-72.2,0-.76-.02-1.51-.04-2.26-.02-.59-.55-1.04-1.14-.96-36.95,4.89-65.64,36.28-66.28,74.39Z"/>
      <path class="cls-1" d="M0,72.47c0,37.97,29.2,69.1,66.37,72.2.59.05,1.1-.43,1.09-1.02-.64-38.11-29.33-69.51-66.29-74.39-.58-.08-1.12.37-1.14.96-.03.75-.04,1.5-.04,2.26Z"/>
      <g>
        <path class="cls-1" d="M142.64,59.31c.58-.07.98-.62.86-1.19-4.95-24.66-22.41-44.78-45.48-53.48-4.58-1.73-9.39-2.99-14.36-3.77-3.65-.57-7.38-.88-11.19-.88s-7.54.31-11.19.88c-4.97.77-9.78,2.04-14.36,3.77C23.85,13.34,6.39,33.47,1.44,58.13c-.11.57.29,1.11.86,1.19,14.92,1.93,28.65,7.67,40.17,16.21,0-.34-.03-.68-.03-1.02,0-22.54,8.64-43.05,22.77-58.43,2.07-2.26,4.27-4.39,6.58-6.42.38-.33.96-.33,1.34,0,2.3,2.02,4.5,4.16,6.58,6.42,14.14,15.38,22.77,35.89,22.77,58.43,0,.34-.02.68-.03,1.02,11.53-8.54,25.25-14.28,40.17-16.21Z"/>
        <path class="cls-1" d="M73.22,23.86c-.4-.45-1.11-.45-1.51,0-11.98,13.49-19.26,31.23-19.26,50.65,0,3.42.25,6.78.68,10.08.03.21.12.41.27.56,7.76,8.08,13.98,17.67,18.14,28.29.33.84,1.52.84,1.85,0,4.16-10.62,10.38-20.2,18.14-28.29.15-.15.24-.35.27-.56.44-3.3.68-6.66.68-10.08,0-19.42-7.29-37.16-19.26-50.65Z"/>
      </g>
    </g>
  </g>
</svg>