<?xml version="1.0" encoding="UTF-8"?>
<svg id="Camada_2" data-name="Camada 2" xmlns="http://www.w3.org/2000/svg" xmlns:xlink="http://www.w3.org/1999/xlink" viewBox="0 0 1264.08 298.88">
  <defs>
    <style>
      .cls-1 {
        fill: #73a475;
      }

      .cls-1, .cls-2, .cls-3 {
        stroke-width: 0px;
      }

      .cls-2 {
        fill: none;
      }

      .cls-3 {
        fill: #4d7c7b;
      }

      .cls-4 {
        clip-path: url(#clippath);
      }
    </style>
    <clipPath id="clippath">
      <path class="cls-2" d="M1013.87,0c3.42,0,6.19,2.77,6.19,6.19v168.1c0,47.3-26.37,88.46-65.2,109.56-17.65,9.59-37.88,15.03-59.39,15.03s-41.74-5.44-59.39-15.03c-38.85-21.09-65.22-62.25-65.22-109.56V6.19c0-3.42,2.77-6.19,6.19-6.19h52.85c3.42,0,6.19,2.77,6.19,6.19v166.86c0,32.35,25.35,59.7,57.69,60.6,33.56.94,61.09-25.99,61.09-59.36V6.19c0-3.42,2.77-6.19,6.19-6.19h52.83ZM65.21,227.49V6.19C65.21,2.78,62.44,0,59.02,0H6.19C2.77,0,0,2.78,0,6.19v286.5c0,3.42,2.77,6.19,6.19,6.19h181.7c3.42,0,6.19-2.77,6.19-6.19v-52.84c0-3.42-2.77-6.19-6.19-6.19h-116.49c-3.42,0-6.19-2.77-6.19-6.19ZM735.44,0h-213.28c-3.42,0-6.19,2.77-6.19,6.19v52.84c0,3.42,2.77,6.19,6.19,6.19h67.85c3.42,0,6.19,2.77,6.19,6.19v221.29c0,3.42,2.77,6.19,6.19,6.19h52.84c3.42,0,6.19-2.77,6.19-6.19V71.4c0-3.42,2.77-6.19,6.19-6.19h67.85c3.42,0,6.19-2.77,6.19-6.19V6.19c0-3.42-2.77-6.19-6.19-6.19ZM1138.3,65.22h119.59c3.42,0,6.19-2.77,6.19-6.19V6.19c0-3.42-2.77-6.19-6.19-6.19h-120.42c-41.3,0-76.19,27.53-87.31,65.22-2.41,8.19-3.71,16.85-3.71,25.8s1.3,17.63,3.71,25.82c6.52,22.08,21.18,40.68,40.52,52.29,13.67,8.21,29.67,12.93,46.79,12.93h35.59c14.41,0,26.06,11.81,25.79,26.29-.26,14.21-12.46,25.33-26.67,25.33h-119.55c-3.42,0-6.19,2.77-6.19,6.19v52.83c0,3.42,2.77,6.19,6.19,6.19h120.42c41.3,0,76.17-27.51,87.31-65.2,2.41-8.19,3.71-16.85,3.71-25.82s-1.3-17.63-3.71-25.8c-6.52-22.08-21.18-40.68-40.52-52.29-13.67-8.21-29.67-12.93-46.79-12.93h-35.59c-14.4,0-26.06-11.79-25.81-26.26s12.43-25.35,26.64-25.35ZM366.59,296.21c-.02,1.22,1.04,2.21,2.25,2.11,76.64-6.39,136.86-70.58,136.86-148.87,0-1.56-.03-3.11-.08-4.65-.04-1.22-1.14-2.14-2.34-1.98-76.19,10.07-135.36,74.8-136.68,153.4ZM206.82,149.44c0,78.29,60.22,142.48,136.86,148.87,1.22.1,2.28-.89,2.25-2.11-1.32-78.59-60.49-143.32-136.68-153.4-1.21-.16-2.3.77-2.34,1.98-.05,1.55-.08,3.1-.08,4.65ZM500.95,122.31c1.19-.15,2.01-1.27,1.78-2.44-10.21-50.84-46.21-92.35-93.77-110.29-9.45-3.56-19.36-6.18-29.61-7.77C371.82.65,364.12,0,356.26,0s-15.56.64-23.08,1.81c-10.25,1.59-20.16,4.2-29.61,7.77-47.56,17.94-83.56,59.44-93.77,110.29-.24,1.17.59,2.29,1.78,2.44,30.77,3.98,59.07,15.82,82.84,33.43,0-.7-.05-1.4-.05-2.1,0-46.47,17.81-88.77,46.96-120.48,4.28-4.65,8.81-9.06,13.56-13.23.78-.69,1.97-.69,2.76,0,4.75,4.17,9.28,8.58,13.56,13.23,29.15,31.71,46.96,74.01,46.96,120.48,0,.7-.04,1.4-.05,2.1,23.77-17.61,52.07-29.45,82.84-33.43ZM357.82,49.2c-.82-.92-2.29-.92-3.11,0-24.7,27.82-39.72,64.4-39.72,104.44,0,7.05.51,13.99,1.41,20.79.06.43.25.84.56,1.15,16.01,16.67,28.82,36.43,37.41,58.33.68,1.73,3.13,1.73,3.81,0,8.59-21.9,21.4-41.66,37.41-58.33.3-.32.5-.72.56-1.15.91-6.81,1.41-13.74,1.41-20.79,0-40.04-15.02-76.62-39.72-104.44Z"/>
    </clipPath>
  </defs>
  <g id="Layer_1" data-name="Layer 1">
    <g class="cls-4">
      <rect class="cls-1" x="-148.79" y="-18.01" width="1560.36" height="258.32"/>
      <path class="cls-3" d="M-80.67,89.77c6.99,0,160.69,17.47,440.38-5.24,185.09-15.03,285.18,59.49,495.83,38.43,250.36-25.04,335.36,3.49,462.87-29.69s12.23,213.09,12.23,213.09H-69.63l-11.04-216.59Z"/>
    </g>
  </g>
</svg>